<?xml version="1.0"?>
<svg width="300" height="300" xmlns="http://www.w3.org/2000/svg">

 <metadata id="metadata3790">image/svg+xml</metadata>
 <g>
  <title>background</title>
  <rect fill="none" id="canvas_background" height="402" width="582" y="-1" x="-1"/>
 </g>
 <g>
  <title>Layer 1</title>
  <path fill="#ffffff" stroke="#000000" stroke-width="0.779883" d="m150.946106,164.144104c-2.293594,-2.298706 -4.399673,-4.824509 -6.606384,-7.222839c-4.646423,-5.135605 -9.227875,-10.33046 -13.89711,-15.444916c-0.284698,-0.43042 -1.001434,-1.119843 -0.860886,-0.134506c-0.061432,4.792313 0.007187,9.586685 -0.002411,14.379776c0.029037,1.75148 -0.044388,3.511749 0.049667,5.25766c-0.189957,0.76741 1.214569,2.568481 -0.024338,2.47319c-1.039017,0.02327 -2.084946,0.059998 -3.121223,-0.038635c0.760544,-1.927124 0.837395,-4.010391 0.777245,-6.05307c-0.025688,-5.943909 -0.000275,-11.891052 -0.057724,-17.832947c0.068871,-1.108109 -0.910583,-2.389206 -0.982643,-3.181656c1.198441,0.022659 2.415962,-0.082443 3.602592,0.019424c0.711151,0.476715 1.199768,1.302963 1.835953,1.896011c2.7435,2.951126 5.305008,6.063568 8.0746,8.991257c2.70845,2.917953 5.348511,5.898239 8.036301,8.833908c0.233948,0.249237 0.901581,1.133636 0.897781,0.296753c-0.004822,-5.647537 0.039581,-11.296631 0.003586,-16.943222c0.002396,-1.069397 -0.490417,-2.185562 -0.658691,-3.155457c1.222458,-0.091064 2.504364,-0.018005 3.750183,-0.062866c-0.2173,1.018921 -0.708344,2.048828 -0.668457,3.146896c-0.084946,2.981445 -0.015228,5.968872 -0.040176,8.952637c-0.016205,5.18338 0.022659,10.36853 -0.028091,15.550781c-0.012466,0.07666 0.010803,0.245483 -0.07988,0.271744l0.000107,0.000076z" id="path4395"/>
  <path fill="#ffffff" stroke="#000000" stroke-width="0.779883" d="m244.877853,163.957367c-1.118454,-2.048126 -2.011139,-4.335739 -3.031555,-6.479782c-2.646164,-5.745911 -5.193222,-11.544159 -7.899002,-17.258392c-0.516861,0.475815 -0.19046,1.535919 -0.376892,2.219284c-0.415955,6.133133 -0.937027,12.261353 -1.296143,18.396912c-0.037308,0.841721 0.203491,1.773483 0.196182,2.521011c-1.122452,0.119385 -2.292068,0.113632 -3.423569,0.004791c0.306046,-1.240234 0.806656,-2.436752 0.896851,-3.730728c0.643188,-6.756577 1.195404,-13.526749 1.789124,-20.2883c0.002396,-0.970734 -0.05986,-1.942108 -0.255112,-2.895325c1.307831,-0.156662 2.664124,-0.213776 3.961136,-0.048477c2.345184,4.726685 4.43132,9.577759 6.677551,14.351883c1.047256,2.191879 1.988007,4.461197 3.08696,6.615692c0.456375,0.087112 0.590805,-0.929092 0.850952,-1.286621c2.85495,-6.591507 5.674301,-13.200546 8.545074,-19.783615c0.711349,-0.221634 1.524857,0.018005 2.268417,-0.062256c0.517303,0.131882 1.420105,-0.19696 1.75885,0.158295c-0.491852,2.141144 -0.167725,4.329697 0.088776,6.476151c0.650177,5.894684 1.217438,11.801987 1.915405,17.689438c0.112183,0.954346 0.55484,1.844635 0.806396,2.735825c-0.697815,0.195618 -1.574493,0.065979 -2.337433,0.129028c-0.55658,-0.103302 -1.68515,0.223801 -1.883057,-0.258743c0.11615,-0.767365 0.297394,-1.52327 0.22644,-2.310455c-0.025665,-2.500458 -0.465698,-4.982559 -0.656891,-7.474747c-0.47464,-4.318802 -0.855713,-8.651672 -1.380936,-12.963104c-0.289993,-0.525894 -0.573029,0.502594 -0.697784,0.738098c-3.244843,7.544495 -6.42746,15.120102 -9.713364,22.644196c-0.053391,0.035278 -0.042709,0.149399 -0.116379,0.159836l0,0.000107z" id="path4393"/>
  <path fill="#ffffff" stroke="#000000" stroke-width="0.779883" d="m277.899841,163.691895c-2.373718,-0.06575 -4.781891,-0.455307 -6.997986,-1.292816c-0.302368,-0.327911 -0.12738,-0.875031 -0.182129,-1.298416c0.012482,-0.640274 -0.049042,-1.287262 0.075256,-1.919785c1.440582,1.042831 3.020325,1.933533 4.777954,2.308853c2.435791,0.586197 5.288239,0.429199 7.269501,-1.261246c1.575226,-1.399673 2.160034,-3.976578 0.935791,-5.780014c-1.279572,-1.86937 -3.331879,-2.981079 -5.145142,-4.256165c-2.463287,-1.576859 -5.264099,-3.173981 -6.41449,-6.025116c-0.700378,-2.068451 -0.225403,-4.579742 1.468994,-6.035782c1.811615,-1.831665 4.51825,-2.364304 7.012421,-2.26384c1.881317,0.056747 3.741821,0.463348 5.531708,1.031433c0.113586,0.892273 0.138092,1.80632 -0.015289,2.695847c-0.748657,-0.180695 -1.297333,-0.807144 -2.032318,-1.048157c-2.43335,-1.008728 -5.478912,-1.276077 -7.742676,0.306732c-1.227509,0.830841 -1.847839,2.451767 -1.385315,3.874649c0.630219,2.17984 2.844971,3.20903 4.551758,4.425415c2.671509,1.854584 5.821869,3.453323 7.344299,6.484055c1.640198,3.273544 -0.166992,7.528275 -3.430939,8.991394c-1.756012,0.796555 -3.707153,1.058441 -5.621399,1.062958z" id="path4391"/>
  <path fill="#ffffff" stroke="#000000" stroke-width="0.779883" d="m61.376755,163.575058c-5.030659,-0.047272 -10.063328,-0.053757 -15.092697,-0.135391c0.155495,-0.823334 0.725349,-1.572968 0.770184,-2.450455c0.366291,-2.096054 0.117115,-4.228745 0.177597,-6.342819c-0.016758,-5.00676 -0.002518,-10.016647 -0.038616,-15.021469c-0.106956,-1.121765 -0.44891,-2.201843 -0.89172,-3.231979c0.288727,-0.252823 0.76199,-0.046677 1.125462,-0.113632c4.475739,-0.019791 8.951118,0.039368 13.426472,0.089508c0.30962,0.393555 0.092083,0.982071 0.157722,1.454147c-0.052002,0.358078 0.111897,0.916336 -0.099644,1.149902c-0.688396,-0.085419 -1.318668,-0.455688 -2.024681,-0.494461c-1.21434,-0.250687 -2.465164,-0.077972 -3.696712,-0.128784c-1.551285,0 -3.102562,0 -4.653839,0c-0.375229,0.273163 -0.126114,0.806961 -0.206364,1.203278c-0.037159,2.515594 0.008633,5.031662 0.04488,7.547028c0.65416,0.349182 1.530437,0.072952 2.262398,0.186813c2.701443,0.055664 5.404915,-0.013809 8.105156,0.099579c0.188686,0.549561 0.048363,1.177536 0.106888,1.758118c0.199745,1.150085 -0.795143,0.573715 -1.473377,0.380661c-2.95747,-0.180893 -5.92601,-0.200378 -8.884857,-0.057831c-0.305012,0.434143 -0.075161,1.017685 -0.143944,1.517807c0.018391,3.41922 0.011639,6.845139 0.054707,10.260849c0.35046,0.317551 0.898499,0.086151 1.335911,0.1595c3.91832,-0.058304 7.914555,0.497543 11.745827,-0.601395c-0.018742,0.943756 -0.558552,1.800385 -0.825958,2.691116c-0.412819,0.145248 -0.855057,0.057098 -1.280792,0.080017l0,-0.000107z" id="path4389"/>
  <path fill="#ffffff" stroke="#000000" stroke-width="0.779883" d="m114.448029,163.51799c-4.866882,-0.032745 -9.733673,-0.077133 -14.600502,-0.116714c-0.24762,-0.305161 0.230659,-0.660172 0.283073,-0.984421c0.618607,-1.434769 0.674957,-3.014175 0.633293,-4.551956c-0.000694,-6.179413 0.002396,-12.361877 -0.037666,-18.539734c-0.122223,-1.02742 -0.552437,-2.004868 -0.889122,-2.95047c0.479073,-0.148605 1.111656,-0.077026 1.651802,-0.108948c4.248177,0.030243 8.496361,0.058441 12.74453,0.088196c0.420395,0.139786 0.147888,0.701614 0.233582,1.033157c-0.006004,0.533966 0.058189,1.073227 -0.051956,1.600693c-3.065079,-1.086304 -6.360039,-0.593399 -9.536079,-0.687195c-0.360382,0.049438 -1.050148,-0.192047 -1.054283,0.367508c0.015114,2.78624 -0.000076,5.572952 0.046539,8.358826c0.389427,0.387756 1.00779,0.119354 1.495087,0.216141c2.950066,0.059738 5.905914,-0.037674 8.851936,0.135193c0.121155,0.80954 0.084335,1.64064 0.041862,2.454727c-0.901222,-0.210632 -1.791168,-0.474457 -2.72921,-0.435364c-2.49704,-0.120438 -4.999641,-0.094421 -7.498215,-0.045471c-0.33609,0.29657 -0.090584,0.834045 -0.165436,1.238815c0,3.518341 0,7.036652 0,10.554962c0.139839,0.380402 0.675224,0.121521 0.982033,0.201706c2.745186,0.012589 5.491623,0.161896 8.23584,0.044861c1.289757,-0.042343 2.563866,-0.232742 3.795883,-0.615311c0.252007,0.577789 -0.348732,1.365967 -0.442337,1.996872c-0.13488,0.347519 -0.136513,0.86821 -0.645355,0.729691c-0.446953,0.035507 -0.899223,0.009613 -1.34536,0.014282l0.000061,-0.000046z" id="path4377"/>
  <path fill="#ffffff" stroke="#000000" stroke-width="0.779883" d="m163.820038,163.515198c-0.91745,-0.021118 -1.845337,0.020523 -2.767242,-0.072464c0.120636,-1.029297 0.58757,-2.137665 0.589111,-3.23941c0.177002,-2.58252 -0.047379,-5.176102 0.077499,-7.76088c-0.033829,-4.415237 -0.002396,-8.833939 -0.084824,-13.246872c0.015488,-0.970612 -0.570908,-1.988617 -0.593994,-2.86702c1.440994,0.018936 2.916504,-0.102829 4.332291,0.141739c-0.283813,1.155197 -0.573425,2.411804 -0.610138,3.640305c-0.118774,2.353531 0.054581,4.710297 0.07547,7.06456c0.457901,0.238098 1.04126,0.048218 1.54982,0.113617c4.279984,0.025894 8.559998,0.047867 12.839966,0.078461c0.422562,-0.336746 0.143951,-0.982101 0.224319,-1.453674c-0.054459,-3.161514 0.250198,-6.404251 -0.732605,-9.463806c0.534103,-0.312729 1.357391,0.009598 1.992783,-0.084839c0.75798,0.056274 1.580978,-0.042465 2.305267,0.093246c0.059738,0.650192 -0.313751,1.434387 -0.342697,2.138611c-0.27269,1.953964 -0.099701,3.93367 -0.151962,5.900085c0.004791,5.359833 -0.036118,10.721466 -0.002411,16.08017c0.05748,0.926559 0.271973,1.834045 0.533554,2.722c-0.346436,0.282944 -0.885086,0.050613 -1.310822,0.12088c-1.006683,-0.005997 -2.015274,0.006012 -3.0168,-0.115051c0.064423,-0.697006 0.576797,-1.28598 0.527313,-2.016602c0.406998,-3.889023 0.121536,-7.800949 0.163086,-11.701004c-0.340805,-0.387405 -0.967484,-0.117325 -1.429794,-0.202377c-4.32962,-0.025314 -8.659195,-0.054474 -12.988831,-0.078827c-0.409454,0.1595 -0.122208,0.756256 -0.21637,1.098892c-0.024582,3.529648 -0.176437,7.06929 0.099701,10.592255c-0.046661,0.922516 1.266556,2.714142 -0.3508,2.508331c-0.236893,0.002396 -0.474899,0.008408 -0.711136,0.009613l0.000244,0.000061z" id="path4375"/>
  <g id="svg_3">
   <path fill="#ffffff" stroke="#000000" stroke-width="0.779883" d="m21.959051,163.508896c-2.732168,0.012222 -5.467443,-0.225677 -8.198377,-0.066345c-0.416358,-0.149124 -0.977645,0.084213 -1.328149,-0.17395c0.395927,-1.027725 0.842062,-2.134033 0.942325,-3.272705c0.193649,-1.789948 0.057083,-3.598846 0.108697,-5.396866c0.001439,-5.064178 0.038811,-10.131042 0.001127,-15.193848c0.085949,-1.081085 -0.827593,-2.314056 -0.659054,-3.221008c4.511396,0.104614 9.088032,-0.236023 13.574221,0.493881c5.828373,1.413727 10.507587,6.929901 10.597069,12.985901c0.184025,4.742462 -2.421989,9.43486 -6.520868,11.818268c-2.533155,1.603714 -5.572155,2.049438 -8.516991,2.026657l0,0.000015z" id="path4387"/>
   <path fill="#ffffff" stroke="#000000" stroke-width="0.779883" d="m20.645012,161.297623c2.748198,0.035995 5.6332,-0.204666 7.994253,-1.749557c2.389858,-1.440567 4.178671,-3.847183 4.766653,-6.58786c1.24725,-4.654419 -0.560978,-10.169052 -4.77816,-12.695984c-3.386492,-1.960175 -7.467709,-2.111877 -11.262991,-1.720688c-0.976242,0.140732 -0.396395,1.363968 -0.565941,2.010605c-0.037085,6.799561 -0.052443,13.599213 -0.072956,20.398834c0.494459,0.39003 1.269156,0.152557 1.864656,0.289673c0.684311,0.03299 1.370201,0.058319 2.054474,0.055069l0.000011,-0.000092z" id="path4385"/>
  </g>
  <g id="svg_4">
   <path fill="#ffffff" stroke="#000000" stroke-width="0.779883" d="m78.000832,163.510284c-1.746429,-0.003601 -3.493164,0.011993 -5.239334,-0.024002c0.017899,-0.63974 0.597748,-1.351395 0.683861,-2.069534c0.345947,-1.550217 0.125107,-3.154617 0.208122,-4.728928c0.034431,-5.45314 0.112671,-10.907379 0.136307,-16.359818c0.00312,-1.369446 -0.330269,-2.717422 -0.921829,-3.949982c1.565895,-0.077499 3.162216,-0.011978 4.737679,-0.13562c2.905067,-0.102585 6.049202,-0.181717 8.562973,1.505066c2.134834,1.491608 3.060417,4.441437 2.152267,6.881058c-0.530373,1.578217 -1.693367,2.960495 -3.221603,3.648727c0.17263,0.442352 1.117195,0.402725 1.507782,0.778564c1.995872,1.035492 3.563194,2.993484 3.808022,5.264084c0.453171,2.966675 -0.963188,6.115646 -3.504486,7.722229c-2.227631,1.487579 -5.018295,1.496735 -7.604713,1.466125c-0.434494,0.000931 -0.873047,-0.00061 -1.305046,0.002396l0,-0.000366z" id="path4383"/>
   <path fill="#ffffff" stroke="#000000" stroke-width="0.779883" d="m79.55822,161.610153c1.783905,-0.005981 3.694595,-0.255966 5.181854,-1.307693c1.408577,-0.938171 2.330559,-2.521454 2.432991,-4.215927c0.197197,-1.824707 -0.445816,-3.778366 -1.971039,-4.8909c-2.164009,-1.625702 -4.990517,-1.662994 -7.578621,-1.51767c-0.499176,-0.059494 -0.867409,0.173126 -0.723083,0.700256c-0.039124,3.607025 -0.069649,7.214142 -0.096558,10.821228c0.685928,0.538467 1.899025,0.303726 2.754456,0.410706z" id="path4381"/>
   <path fill="#ffffff" stroke="#000000" stroke-width="0.779883" d="m79.704231,147.684479c1.853966,0.03624 3.969299,-0.34874 5.112648,-1.947052c1.302116,-1.707108 1.210915,-4.391891 -0.319534,-5.93071c-1.653946,-1.656296 -4.160416,-1.802765 -6.370995,-1.647644c-0.453644,0.04451 -1.378922,-0.089157 -1.22448,0.637177c0.013474,2.884201 -0.034607,5.773514 0.017143,8.654495c0.213264,0.426559 1.061974,0.076324 1.50795,0.220596c0.425156,0.02951 0.852882,0.017288 1.277267,0.013077l0,0.000061z" id="path4379"/>
  </g>
  <g id="svg_5">
   <path fill="#ffffff" stroke="#000000" stroke-width="0.779883" d="m194.570984,163.510513c-0.746826,-0.009613 -1.498199,0.057098 -2.238739,-0.070435c0.600479,-1.098434 1.504791,-2.155945 2.006256,-3.364166c2.124924,-4.485489 4.10144,-9.041428 6.107254,-13.581436c0.95285,-2.306549 2.082016,-4.540482 3.044067,-6.839752c0.366089,-1.029221 0.605606,-2.109192 0.566696,-3.205368c1.101227,-0.061676 2.277466,-0.259262 3.343353,-0.064438c0.7258,1.422165 1.289673,2.920975 1.984589,4.35994c2.976379,6.651718 5.901718,13.328323 8.904358,19.967163c0.29097,0.876236 1.505524,1.886642 1.479645,2.610291c-1.549149,0.10881 -3.106842,0.125336 -4.657532,0.05928c-0.073914,-0.887009 0.042236,-1.817535 -0.326538,-2.667465c-1.019257,-2.499207 -2.158844,-4.948257 -3.258118,-7.412872c-0.598633,-0.32608 -1.333191,-0.066711 -1.990753,-0.138931c-3.175446,0.03299 -6.351135,0.047516 -9.526489,0.090225c-0.47229,0.574081 -0.570572,1.440521 -0.967056,2.099426c-0.847748,2.060104 -1.870056,4.055832 -2.610229,6.15564c-0.164093,0.630615 -0.179474,1.281708 -0.166458,1.928452c-0.531128,0.15004 -1.141968,0.031464 -1.694305,0.074509l0,-0.000061z" id="path4373"/>
   <path fill="#ffffff" stroke="#000000" stroke-width="0.779883" d="m205.365601,151.234238c1.681091,0.004807 3.364105,-0.021942 5.042023,-0.123489c0.016678,-0.92688 -0.773712,-1.865311 -1.030792,-2.789261c-1.143005,-2.644302 -2.354614,-5.258072 -3.55011,-7.87886c-0.641159,0.649323 -0.921127,1.867325 -1.417496,2.718445c-1.140778,2.548431 -2.324783,5.0811 -3.401062,7.656509c-0.118774,0.704025 1.04895,0.184036 1.425919,0.381348c0.977005,0.021469 1.954422,0.031189 2.931519,0.035278l0,0.000031z" id="path3859"/>
  </g>
 </g>
</svg>